# xmcd
#
# Track frame offsets: 
#        150
#        39660
#        57658
#        93838
#        131945
#        166939
#
# Disc length: 2495 seconds
#
# Revision: 0
# Processed by: cddbd v1.5.2PL0 Copyright (c) Steve Scherf et al.
# Submitted via: ExactAudioCopyFreeDBPlugin 1.0
#
DISCID=5009bd06
DTITLE=Peter Stevenson -  Bones!
DYEAR=2004
DGENRE=Blues
TTITLE0=Bumped Elbow
TTITLE1=Italian Concerto, Mvt. 1
TTITLE2=So What
TTITLE3=Suede Scraps
TTITLE4=Blue in Green
TTITLE5=Maroon
EXTD=
EXTT0=
EXTT1=
EXTT2=
EXTT3=
EXTT4=
EXTT5=
PLAYORDER=
